<mxfile host="app.diagrams.net" modified="2024-05-14T08:20:06.895Z" agent="Mozilla/5.0 (Windows NT 10.0; Win64; x64) AppleWebKit/537.36 (KHTML, like Gecko) Chrome/124.0.0.0 Safari/537.36" etag="TUU3-l78coDs0yt8c7ex" version="24.4.0" type="device">
  <diagram id="C5RBs43oDa-KdzZeNtuy" name="Page-1">
    <mxGraphModel dx="3218" dy="1114" grid="1" gridSize="10" guides="1" tooltips="1" connect="1" arrows="1" fold="1" page="1" pageScale="1" pageWidth="827" pageHeight="1169" math="0" shadow="0">
      <root>
        <mxCell id="WIyWlLk6GJQsqaUBKTNV-0" />
        <mxCell id="WIyWlLk6GJQsqaUBKTNV-1" parent="WIyWlLk6GJQsqaUBKTNV-0" />
        <mxCell id="C-fQPJXkF4i49Cx2T6fv-18" value="" style="endArrow=block;endSize=10;endFill=0;shadow=0;strokeWidth=1;rounded=0;curved=0;edgeStyle=elbowEdgeStyle;elbow=vertical;" edge="1" parent="WIyWlLk6GJQsqaUBKTNV-1">
          <mxGeometry width="160" relative="1" as="geometry">
            <mxPoint y="142" as="sourcePoint" />
            <mxPoint x="100" y="40" as="targetPoint" />
          </mxGeometry>
        </mxCell>
        <mxCell id="C-fQPJXkF4i49Cx2T6fv-22" value="" style="endArrow=block;endSize=10;endFill=0;shadow=0;strokeWidth=1;rounded=0;curved=0;edgeStyle=elbowEdgeStyle;elbow=vertical;" edge="1" parent="WIyWlLk6GJQsqaUBKTNV-1">
          <mxGeometry width="160" relative="1" as="geometry">
            <mxPoint x="210" y="142" as="sourcePoint" />
            <mxPoint x="100" y="40" as="targetPoint" />
          </mxGeometry>
        </mxCell>
        <mxCell id="C-fQPJXkF4i49Cx2T6fv-32" value="" style="endArrow=open;shadow=0;strokeWidth=1;rounded=0;curved=0;endFill=1;edgeStyle=elbowEdgeStyle;elbow=vertical;" edge="1" parent="WIyWlLk6GJQsqaUBKTNV-1">
          <mxGeometry x="0.5" y="41" relative="1" as="geometry">
            <mxPoint y="20" as="sourcePoint" />
            <mxPoint x="131" y="20" as="targetPoint" />
            <mxPoint x="-40" y="32" as="offset" />
          </mxGeometry>
        </mxCell>
        <mxCell id="C-fQPJXkF4i49Cx2T6fv-33" value="0..1" style="resizable=0;align=left;verticalAlign=bottom;labelBackgroundColor=none;fontSize=12;" connectable="0" vertex="1" parent="C-fQPJXkF4i49Cx2T6fv-32">
          <mxGeometry x="-1" relative="1" as="geometry">
            <mxPoint y="4" as="offset" />
          </mxGeometry>
        </mxCell>
        <mxCell id="C-fQPJXkF4i49Cx2T6fv-34" value="1" style="resizable=0;align=right;verticalAlign=bottom;labelBackgroundColor=none;fontSize=12;" connectable="0" vertex="1" parent="C-fQPJXkF4i49Cx2T6fv-32">
          <mxGeometry x="1" relative="1" as="geometry">
            <mxPoint x="-7" y="4" as="offset" />
          </mxGeometry>
        </mxCell>
        <mxCell id="C-fQPJXkF4i49Cx2T6fv-35" value="lives at" style="text;html=1;resizable=0;points=[];;align=center;verticalAlign=middle;labelBackgroundColor=none;rounded=0;shadow=0;strokeWidth=1;fontSize=12;" vertex="1" connectable="0" parent="C-fQPJXkF4i49Cx2T6fv-32">
          <mxGeometry x="0.5" y="49" relative="1" as="geometry">
            <mxPoint x="-38" y="40" as="offset" />
          </mxGeometry>
        </mxCell>
        <mxCell id="C-fQPJXkF4i49Cx2T6fv-44" value="User" style="swimlane;fontStyle=2;align=center;verticalAlign=top;childLayout=stackLayout;horizontal=1;startSize=26;horizontalStack=0;resizeParent=1;resizeLast=0;collapsible=1;marginBottom=0;rounded=0;shadow=0;strokeWidth=1;" vertex="1" parent="WIyWlLk6GJQsqaUBKTNV-1">
          <mxGeometry x="270" y="378" width="157" height="138" as="geometry">
            <mxRectangle x="230" y="140" width="160" height="26" as="alternateBounds" />
          </mxGeometry>
        </mxCell>
        <mxCell id="C-fQPJXkF4i49Cx2T6fv-45" value="id                                    int" style="text;align=left;verticalAlign=top;spacingLeft=4;spacingRight=4;overflow=hidden;rotatable=0;points=[[0,0.5],[1,0.5]];portConstraint=eastwest;strokeColor=#000000;fillColor=#99CCFF;" vertex="1" parent="C-fQPJXkF4i49Cx2T6fv-44">
          <mxGeometry y="26" width="157" height="26" as="geometry" />
        </mxCell>
        <mxCell id="C-fQPJXkF4i49Cx2T6fv-46" value="password&#xa;" style="text;align=left;verticalAlign=top;spacingLeft=4;spacingRight=4;overflow=hidden;rotatable=0;points=[[0,0.5],[1,0.5]];portConstraint=eastwest;rounded=0;shadow=0;html=0;" vertex="1" parent="C-fQPJXkF4i49Cx2T6fv-44">
          <mxGeometry y="52" width="157" height="26" as="geometry" />
        </mxCell>
        <mxCell id="C-fQPJXkF4i49Cx2T6fv-47" value="name" style="text;align=left;verticalAlign=top;spacingLeft=4;spacingRight=4;overflow=hidden;rotatable=0;points=[[0,0.5],[1,0.5]];portConstraint=eastwest;rounded=0;shadow=0;html=0;" vertex="1" parent="C-fQPJXkF4i49Cx2T6fv-44">
          <mxGeometry y="78" width="157" height="26" as="geometry" />
        </mxCell>
        <mxCell id="C-fQPJXkF4i49Cx2T6fv-48" value="" style="line;html=1;strokeWidth=1;align=left;verticalAlign=middle;spacingTop=-1;spacingLeft=3;spacingRight=3;rotatable=0;labelPosition=right;points=[];portConstraint=eastwest;" vertex="1" parent="C-fQPJXkF4i49Cx2T6fv-44">
          <mxGeometry y="104" width="157" height="8" as="geometry" />
        </mxCell>
        <mxCell id="C-fQPJXkF4i49Cx2T6fv-49" value="UserServiceImpl" style="swimlane;fontStyle=2;align=center;verticalAlign=top;childLayout=stackLayout;horizontal=1;startSize=26;horizontalStack=0;resizeParent=1;resizeLast=0;collapsible=1;marginBottom=0;rounded=0;shadow=0;strokeWidth=1;" vertex="1" parent="WIyWlLk6GJQsqaUBKTNV-1">
          <mxGeometry x="270" y="570" width="157" height="138" as="geometry">
            <mxRectangle x="230" y="140" width="160" height="26" as="alternateBounds" />
          </mxGeometry>
        </mxCell>
        <mxCell id="C-fQPJXkF4i49Cx2T6fv-50" value="id                                    int" style="text;align=left;verticalAlign=top;spacingLeft=4;spacingRight=4;overflow=hidden;rotatable=0;points=[[0,0.5],[1,0.5]];portConstraint=eastwest;strokeColor=#000000;fillColor=#99CCFF;" vertex="1" parent="C-fQPJXkF4i49Cx2T6fv-49">
          <mxGeometry y="26" width="157" height="26" as="geometry" />
        </mxCell>
        <mxCell id="C-fQPJXkF4i49Cx2T6fv-51" value="password&#xa;" style="text;align=left;verticalAlign=top;spacingLeft=4;spacingRight=4;overflow=hidden;rotatable=0;points=[[0,0.5],[1,0.5]];portConstraint=eastwest;rounded=0;shadow=0;html=0;" vertex="1" parent="C-fQPJXkF4i49Cx2T6fv-49">
          <mxGeometry y="52" width="157" height="26" as="geometry" />
        </mxCell>
        <mxCell id="C-fQPJXkF4i49Cx2T6fv-52" value="name" style="text;align=left;verticalAlign=top;spacingLeft=4;spacingRight=4;overflow=hidden;rotatable=0;points=[[0,0.5],[1,0.5]];portConstraint=eastwest;rounded=0;shadow=0;html=0;" vertex="1" parent="C-fQPJXkF4i49Cx2T6fv-49">
          <mxGeometry y="78" width="157" height="26" as="geometry" />
        </mxCell>
        <mxCell id="C-fQPJXkF4i49Cx2T6fv-53" value="" style="line;html=1;strokeWidth=1;align=left;verticalAlign=middle;spacingTop=-1;spacingLeft=3;spacingRight=3;rotatable=0;labelPosition=right;points=[];portConstraint=eastwest;" vertex="1" parent="C-fQPJXkF4i49Cx2T6fv-49">
          <mxGeometry y="104" width="157" height="8" as="geometry" />
        </mxCell>
        <mxCell id="C-fQPJXkF4i49Cx2T6fv-54" value="UserController" style="swimlane;fontStyle=2;align=center;verticalAlign=top;childLayout=stackLayout;horizontal=1;startSize=26;horizontalStack=0;resizeParent=1;resizeLast=0;collapsible=1;marginBottom=0;rounded=0;shadow=0;strokeWidth=1;" vertex="1" parent="WIyWlLk6GJQsqaUBKTNV-1">
          <mxGeometry x="450" y="570" width="157" height="138" as="geometry">
            <mxRectangle x="230" y="140" width="160" height="26" as="alternateBounds" />
          </mxGeometry>
        </mxCell>
        <mxCell id="C-fQPJXkF4i49Cx2T6fv-55" value="id                                    int" style="text;align=left;verticalAlign=top;spacingLeft=4;spacingRight=4;overflow=hidden;rotatable=0;points=[[0,0.5],[1,0.5]];portConstraint=eastwest;strokeColor=#000000;fillColor=#99CCFF;" vertex="1" parent="C-fQPJXkF4i49Cx2T6fv-54">
          <mxGeometry y="26" width="157" height="26" as="geometry" />
        </mxCell>
        <mxCell id="C-fQPJXkF4i49Cx2T6fv-56" value="password&#xa;" style="text;align=left;verticalAlign=top;spacingLeft=4;spacingRight=4;overflow=hidden;rotatable=0;points=[[0,0.5],[1,0.5]];portConstraint=eastwest;rounded=0;shadow=0;html=0;" vertex="1" parent="C-fQPJXkF4i49Cx2T6fv-54">
          <mxGeometry y="52" width="157" height="26" as="geometry" />
        </mxCell>
        <mxCell id="C-fQPJXkF4i49Cx2T6fv-57" value="name" style="text;align=left;verticalAlign=top;spacingLeft=4;spacingRight=4;overflow=hidden;rotatable=0;points=[[0,0.5],[1,0.5]];portConstraint=eastwest;rounded=0;shadow=0;html=0;" vertex="1" parent="C-fQPJXkF4i49Cx2T6fv-54">
          <mxGeometry y="78" width="157" height="26" as="geometry" />
        </mxCell>
        <mxCell id="C-fQPJXkF4i49Cx2T6fv-58" value="" style="line;html=1;strokeWidth=1;align=left;verticalAlign=middle;spacingTop=-1;spacingLeft=3;spacingRight=3;rotatable=0;labelPosition=right;points=[];portConstraint=eastwest;" vertex="1" parent="C-fQPJXkF4i49Cx2T6fv-54">
          <mxGeometry y="104" width="157" height="8" as="geometry" />
        </mxCell>
        <mxCell id="C-fQPJXkF4i49Cx2T6fv-59" value="UserDto" style="swimlane;fontStyle=2;align=center;verticalAlign=top;childLayout=stackLayout;horizontal=1;startSize=26;horizontalStack=0;resizeParent=1;resizeLast=0;collapsible=1;marginBottom=0;rounded=0;shadow=0;strokeWidth=1;" vertex="1" parent="WIyWlLk6GJQsqaUBKTNV-1">
          <mxGeometry x="450" y="378" width="157" height="138" as="geometry">
            <mxRectangle x="230" y="140" width="160" height="26" as="alternateBounds" />
          </mxGeometry>
        </mxCell>
        <mxCell id="C-fQPJXkF4i49Cx2T6fv-60" value="id                                    int" style="text;align=left;verticalAlign=top;spacingLeft=4;spacingRight=4;overflow=hidden;rotatable=0;points=[[0,0.5],[1,0.5]];portConstraint=eastwest;strokeColor=#000000;fillColor=#99CCFF;" vertex="1" parent="C-fQPJXkF4i49Cx2T6fv-59">
          <mxGeometry y="26" width="157" height="26" as="geometry" />
        </mxCell>
        <mxCell id="C-fQPJXkF4i49Cx2T6fv-61" value="password&#xa;" style="text;align=left;verticalAlign=top;spacingLeft=4;spacingRight=4;overflow=hidden;rotatable=0;points=[[0,0.5],[1,0.5]];portConstraint=eastwest;rounded=0;shadow=0;html=0;" vertex="1" parent="C-fQPJXkF4i49Cx2T6fv-59">
          <mxGeometry y="52" width="157" height="26" as="geometry" />
        </mxCell>
        <mxCell id="C-fQPJXkF4i49Cx2T6fv-62" value="name" style="text;align=left;verticalAlign=top;spacingLeft=4;spacingRight=4;overflow=hidden;rotatable=0;points=[[0,0.5],[1,0.5]];portConstraint=eastwest;rounded=0;shadow=0;html=0;" vertex="1" parent="C-fQPJXkF4i49Cx2T6fv-59">
          <mxGeometry y="78" width="157" height="26" as="geometry" />
        </mxCell>
        <mxCell id="C-fQPJXkF4i49Cx2T6fv-63" value="" style="line;html=1;strokeWidth=1;align=left;verticalAlign=middle;spacingTop=-1;spacingLeft=3;spacingRight=3;rotatable=0;labelPosition=right;points=[];portConstraint=eastwest;" vertex="1" parent="C-fQPJXkF4i49Cx2T6fv-59">
          <mxGeometry y="104" width="157" height="8" as="geometry" />
        </mxCell>
        <mxCell id="C-fQPJXkF4i49Cx2T6fv-64" value="UserDao" style="swimlane;fontStyle=2;align=center;verticalAlign=top;childLayout=stackLayout;horizontal=1;startSize=26;horizontalStack=0;resizeParent=1;resizeLast=0;collapsible=1;marginBottom=0;rounded=0;shadow=0;strokeWidth=1;" vertex="1" parent="WIyWlLk6GJQsqaUBKTNV-1">
          <mxGeometry x="630" y="378" width="157" height="138" as="geometry">
            <mxRectangle x="230" y="140" width="160" height="26" as="alternateBounds" />
          </mxGeometry>
        </mxCell>
        <mxCell id="C-fQPJXkF4i49Cx2T6fv-65" value="id                                    int" style="text;align=left;verticalAlign=top;spacingLeft=4;spacingRight=4;overflow=hidden;rotatable=0;points=[[0,0.5],[1,0.5]];portConstraint=eastwest;strokeColor=#000000;fillColor=#99CCFF;" vertex="1" parent="C-fQPJXkF4i49Cx2T6fv-64">
          <mxGeometry y="26" width="157" height="26" as="geometry" />
        </mxCell>
        <mxCell id="C-fQPJXkF4i49Cx2T6fv-66" value="password&#xa;" style="text;align=left;verticalAlign=top;spacingLeft=4;spacingRight=4;overflow=hidden;rotatable=0;points=[[0,0.5],[1,0.5]];portConstraint=eastwest;rounded=0;shadow=0;html=0;" vertex="1" parent="C-fQPJXkF4i49Cx2T6fv-64">
          <mxGeometry y="52" width="157" height="26" as="geometry" />
        </mxCell>
        <mxCell id="C-fQPJXkF4i49Cx2T6fv-67" value="name" style="text;align=left;verticalAlign=top;spacingLeft=4;spacingRight=4;overflow=hidden;rotatable=0;points=[[0,0.5],[1,0.5]];portConstraint=eastwest;rounded=0;shadow=0;html=0;" vertex="1" parent="C-fQPJXkF4i49Cx2T6fv-64">
          <mxGeometry y="78" width="157" height="26" as="geometry" />
        </mxCell>
        <mxCell id="C-fQPJXkF4i49Cx2T6fv-68" value="" style="line;html=1;strokeWidth=1;align=left;verticalAlign=middle;spacingTop=-1;spacingLeft=3;spacingRight=3;rotatable=0;labelPosition=right;points=[];portConstraint=eastwest;" vertex="1" parent="C-fQPJXkF4i49Cx2T6fv-64">
          <mxGeometry y="104" width="157" height="8" as="geometry" />
        </mxCell>
        <mxCell id="C-fQPJXkF4i49Cx2T6fv-69" value="LoginServiceImpl" style="swimlane;fontStyle=2;align=center;verticalAlign=top;childLayout=stackLayout;horizontal=1;startSize=26;horizontalStack=0;resizeParent=1;resizeLast=0;collapsible=1;marginBottom=0;rounded=0;shadow=0;strokeWidth=1;" vertex="1" parent="WIyWlLk6GJQsqaUBKTNV-1">
          <mxGeometry x="630" y="216" width="157" height="138" as="geometry">
            <mxRectangle x="230" y="140" width="160" height="26" as="alternateBounds" />
          </mxGeometry>
        </mxCell>
        <mxCell id="C-fQPJXkF4i49Cx2T6fv-70" value="id                                    int" style="text;align=left;verticalAlign=top;spacingLeft=4;spacingRight=4;overflow=hidden;rotatable=0;points=[[0,0.5],[1,0.5]];portConstraint=eastwest;strokeColor=#000000;fillColor=#99CCFF;" vertex="1" parent="C-fQPJXkF4i49Cx2T6fv-69">
          <mxGeometry y="26" width="157" height="26" as="geometry" />
        </mxCell>
        <mxCell id="C-fQPJXkF4i49Cx2T6fv-71" value="password&#xa;" style="text;align=left;verticalAlign=top;spacingLeft=4;spacingRight=4;overflow=hidden;rotatable=0;points=[[0,0.5],[1,0.5]];portConstraint=eastwest;rounded=0;shadow=0;html=0;" vertex="1" parent="C-fQPJXkF4i49Cx2T6fv-69">
          <mxGeometry y="52" width="157" height="26" as="geometry" />
        </mxCell>
        <mxCell id="C-fQPJXkF4i49Cx2T6fv-72" value="name" style="text;align=left;verticalAlign=top;spacingLeft=4;spacingRight=4;overflow=hidden;rotatable=0;points=[[0,0.5],[1,0.5]];portConstraint=eastwest;rounded=0;shadow=0;html=0;" vertex="1" parent="C-fQPJXkF4i49Cx2T6fv-69">
          <mxGeometry y="78" width="157" height="26" as="geometry" />
        </mxCell>
        <mxCell id="C-fQPJXkF4i49Cx2T6fv-73" value="" style="line;html=1;strokeWidth=1;align=left;verticalAlign=middle;spacingTop=-1;spacingLeft=3;spacingRight=3;rotatable=0;labelPosition=right;points=[];portConstraint=eastwest;" vertex="1" parent="C-fQPJXkF4i49Cx2T6fv-69">
          <mxGeometry y="104" width="157" height="8" as="geometry" />
        </mxCell>
        <mxCell id="C-fQPJXkF4i49Cx2T6fv-74" value="LoginService" style="swimlane;fontStyle=2;align=center;verticalAlign=top;childLayout=stackLayout;horizontal=1;startSize=26;horizontalStack=0;resizeParent=1;resizeLast=0;collapsible=1;marginBottom=0;rounded=0;shadow=0;strokeWidth=1;" vertex="1" parent="WIyWlLk6GJQsqaUBKTNV-1">
          <mxGeometry x="630" y="60" width="157" height="138" as="geometry">
            <mxRectangle x="230" y="140" width="160" height="26" as="alternateBounds" />
          </mxGeometry>
        </mxCell>
        <mxCell id="C-fQPJXkF4i49Cx2T6fv-75" value="id                                    int" style="text;align=left;verticalAlign=top;spacingLeft=4;spacingRight=4;overflow=hidden;rotatable=0;points=[[0,0.5],[1,0.5]];portConstraint=eastwest;strokeColor=#000000;fillColor=#99CCFF;" vertex="1" parent="C-fQPJXkF4i49Cx2T6fv-74">
          <mxGeometry y="26" width="157" height="26" as="geometry" />
        </mxCell>
        <mxCell id="C-fQPJXkF4i49Cx2T6fv-76" value="password&#xa;" style="text;align=left;verticalAlign=top;spacingLeft=4;spacingRight=4;overflow=hidden;rotatable=0;points=[[0,0.5],[1,0.5]];portConstraint=eastwest;rounded=0;shadow=0;html=0;" vertex="1" parent="C-fQPJXkF4i49Cx2T6fv-74">
          <mxGeometry y="52" width="157" height="26" as="geometry" />
        </mxCell>
        <mxCell id="C-fQPJXkF4i49Cx2T6fv-77" value="name" style="text;align=left;verticalAlign=top;spacingLeft=4;spacingRight=4;overflow=hidden;rotatable=0;points=[[0,0.5],[1,0.5]];portConstraint=eastwest;rounded=0;shadow=0;html=0;" vertex="1" parent="C-fQPJXkF4i49Cx2T6fv-74">
          <mxGeometry y="78" width="157" height="26" as="geometry" />
        </mxCell>
        <mxCell id="C-fQPJXkF4i49Cx2T6fv-78" value="" style="line;html=1;strokeWidth=1;align=left;verticalAlign=middle;spacingTop=-1;spacingLeft=3;spacingRight=3;rotatable=0;labelPosition=right;points=[];portConstraint=eastwest;" vertex="1" parent="C-fQPJXkF4i49Cx2T6fv-74">
          <mxGeometry y="104" width="157" height="8" as="geometry" />
        </mxCell>
        <mxCell id="C-fQPJXkF4i49Cx2T6fv-79" value="LoginController" style="swimlane;fontStyle=2;align=center;verticalAlign=top;childLayout=stackLayout;horizontal=1;startSize=26;horizontalStack=0;resizeParent=1;resizeLast=0;collapsible=1;marginBottom=0;rounded=0;shadow=0;strokeWidth=1;" vertex="1" parent="WIyWlLk6GJQsqaUBKTNV-1">
          <mxGeometry x="450" y="216" width="157" height="138" as="geometry">
            <mxRectangle x="230" y="140" width="160" height="26" as="alternateBounds" />
          </mxGeometry>
        </mxCell>
        <mxCell id="C-fQPJXkF4i49Cx2T6fv-80" value="id                                    int" style="text;align=left;verticalAlign=top;spacingLeft=4;spacingRight=4;overflow=hidden;rotatable=0;points=[[0,0.5],[1,0.5]];portConstraint=eastwest;strokeColor=#000000;fillColor=#99CCFF;" vertex="1" parent="C-fQPJXkF4i49Cx2T6fv-79">
          <mxGeometry y="26" width="157" height="26" as="geometry" />
        </mxCell>
        <mxCell id="C-fQPJXkF4i49Cx2T6fv-81" value="password&#xa;" style="text;align=left;verticalAlign=top;spacingLeft=4;spacingRight=4;overflow=hidden;rotatable=0;points=[[0,0.5],[1,0.5]];portConstraint=eastwest;rounded=0;shadow=0;html=0;" vertex="1" parent="C-fQPJXkF4i49Cx2T6fv-79">
          <mxGeometry y="52" width="157" height="26" as="geometry" />
        </mxCell>
        <mxCell id="C-fQPJXkF4i49Cx2T6fv-82" value="name" style="text;align=left;verticalAlign=top;spacingLeft=4;spacingRight=4;overflow=hidden;rotatable=0;points=[[0,0.5],[1,0.5]];portConstraint=eastwest;rounded=0;shadow=0;html=0;" vertex="1" parent="C-fQPJXkF4i49Cx2T6fv-79">
          <mxGeometry y="78" width="157" height="26" as="geometry" />
        </mxCell>
        <mxCell id="C-fQPJXkF4i49Cx2T6fv-83" value="" style="line;html=1;strokeWidth=1;align=left;verticalAlign=middle;spacingTop=-1;spacingLeft=3;spacingRight=3;rotatable=0;labelPosition=right;points=[];portConstraint=eastwest;" vertex="1" parent="C-fQPJXkF4i49Cx2T6fv-79">
          <mxGeometry y="104" width="157" height="8" as="geometry" />
        </mxCell>
        <mxCell id="C-fQPJXkF4i49Cx2T6fv-84" value="Problem" style="swimlane;fontStyle=0;align=center;verticalAlign=top;childLayout=stackLayout;horizontal=1;startSize=26;horizontalStack=0;resizeParent=1;resizeLast=0;collapsible=1;marginBottom=0;rounded=0;shadow=0;strokeWidth=1;" vertex="1" parent="WIyWlLk6GJQsqaUBKTNV-1">
          <mxGeometry x="-220" y="310" width="157" height="216" as="geometry">
            <mxRectangle x="550" y="140" width="160" height="26" as="alternateBounds" />
          </mxGeometry>
        </mxCell>
        <mxCell id="C-fQPJXkF4i49Cx2T6fv-85" value="Street" style="text;align=left;verticalAlign=top;spacingLeft=4;spacingRight=4;overflow=hidden;rotatable=0;points=[[0,0.5],[1,0.5]];portConstraint=eastwest;" vertex="1" parent="C-fQPJXkF4i49Cx2T6fv-84">
          <mxGeometry y="26" width="157" height="26" as="geometry" />
        </mxCell>
        <mxCell id="C-fQPJXkF4i49Cx2T6fv-86" value="City" style="text;align=left;verticalAlign=top;spacingLeft=4;spacingRight=4;overflow=hidden;rotatable=0;points=[[0,0.5],[1,0.5]];portConstraint=eastwest;rounded=0;shadow=0;html=0;" vertex="1" parent="C-fQPJXkF4i49Cx2T6fv-84">
          <mxGeometry y="52" width="157" height="26" as="geometry" />
        </mxCell>
        <mxCell id="C-fQPJXkF4i49Cx2T6fv-87" value="State" style="text;align=left;verticalAlign=top;spacingLeft=4;spacingRight=4;overflow=hidden;rotatable=0;points=[[0,0.5],[1,0.5]];portConstraint=eastwest;rounded=0;shadow=0;html=0;" vertex="1" parent="C-fQPJXkF4i49Cx2T6fv-84">
          <mxGeometry y="78" width="157" height="26" as="geometry" />
        </mxCell>
        <mxCell id="C-fQPJXkF4i49Cx2T6fv-88" value="Postal Code" style="text;align=left;verticalAlign=top;spacingLeft=4;spacingRight=4;overflow=hidden;rotatable=0;points=[[0,0.5],[1,0.5]];portConstraint=eastwest;rounded=0;shadow=0;html=0;" vertex="1" parent="C-fQPJXkF4i49Cx2T6fv-84">
          <mxGeometry y="104" width="157" height="26" as="geometry" />
        </mxCell>
        <mxCell id="C-fQPJXkF4i49Cx2T6fv-89" value="Country" style="text;align=left;verticalAlign=top;spacingLeft=4;spacingRight=4;overflow=hidden;rotatable=0;points=[[0,0.5],[1,0.5]];portConstraint=eastwest;rounded=0;shadow=0;html=0;" vertex="1" parent="C-fQPJXkF4i49Cx2T6fv-84">
          <mxGeometry y="130" width="157" height="26" as="geometry" />
        </mxCell>
        <mxCell id="C-fQPJXkF4i49Cx2T6fv-90" value="" style="line;html=1;strokeWidth=1;align=left;verticalAlign=middle;spacingTop=-1;spacingLeft=3;spacingRight=3;rotatable=0;labelPosition=right;points=[];portConstraint=eastwest;" vertex="1" parent="C-fQPJXkF4i49Cx2T6fv-84">
          <mxGeometry y="156" width="157" height="8" as="geometry" />
        </mxCell>
        <mxCell id="C-fQPJXkF4i49Cx2T6fv-91" value="Validate" style="text;align=left;verticalAlign=top;spacingLeft=4;spacingRight=4;overflow=hidden;rotatable=0;points=[[0,0.5],[1,0.5]];portConstraint=eastwest;" vertex="1" parent="C-fQPJXkF4i49Cx2T6fv-84">
          <mxGeometry y="164" width="157" height="26" as="geometry" />
        </mxCell>
        <mxCell id="C-fQPJXkF4i49Cx2T6fv-92" value="Output As Label" style="text;align=left;verticalAlign=top;spacingLeft=4;spacingRight=4;overflow=hidden;rotatable=0;points=[[0,0.5],[1,0.5]];portConstraint=eastwest;" vertex="1" parent="C-fQPJXkF4i49Cx2T6fv-84">
          <mxGeometry y="190" width="157" height="26" as="geometry" />
        </mxCell>
        <mxCell id="C-fQPJXkF4i49Cx2T6fv-93" value="ProblemDto" style="swimlane;fontStyle=0;align=center;verticalAlign=top;childLayout=stackLayout;horizontal=1;startSize=26;horizontalStack=0;resizeParent=1;resizeLast=0;collapsible=1;marginBottom=0;rounded=0;shadow=0;strokeWidth=1;" vertex="1" parent="WIyWlLk6GJQsqaUBKTNV-1">
          <mxGeometry x="-220" y="550" width="157" height="216" as="geometry">
            <mxRectangle x="550" y="140" width="160" height="26" as="alternateBounds" />
          </mxGeometry>
        </mxCell>
        <mxCell id="C-fQPJXkF4i49Cx2T6fv-94" value="Street" style="text;align=left;verticalAlign=top;spacingLeft=4;spacingRight=4;overflow=hidden;rotatable=0;points=[[0,0.5],[1,0.5]];portConstraint=eastwest;" vertex="1" parent="C-fQPJXkF4i49Cx2T6fv-93">
          <mxGeometry y="26" width="157" height="26" as="geometry" />
        </mxCell>
        <mxCell id="C-fQPJXkF4i49Cx2T6fv-95" value="City" style="text;align=left;verticalAlign=top;spacingLeft=4;spacingRight=4;overflow=hidden;rotatable=0;points=[[0,0.5],[1,0.5]];portConstraint=eastwest;rounded=0;shadow=0;html=0;" vertex="1" parent="C-fQPJXkF4i49Cx2T6fv-93">
          <mxGeometry y="52" width="157" height="26" as="geometry" />
        </mxCell>
        <mxCell id="C-fQPJXkF4i49Cx2T6fv-96" value="State" style="text;align=left;verticalAlign=top;spacingLeft=4;spacingRight=4;overflow=hidden;rotatable=0;points=[[0,0.5],[1,0.5]];portConstraint=eastwest;rounded=0;shadow=0;html=0;" vertex="1" parent="C-fQPJXkF4i49Cx2T6fv-93">
          <mxGeometry y="78" width="157" height="26" as="geometry" />
        </mxCell>
        <mxCell id="C-fQPJXkF4i49Cx2T6fv-97" value="Postal Code" style="text;align=left;verticalAlign=top;spacingLeft=4;spacingRight=4;overflow=hidden;rotatable=0;points=[[0,0.5],[1,0.5]];portConstraint=eastwest;rounded=0;shadow=0;html=0;" vertex="1" parent="C-fQPJXkF4i49Cx2T6fv-93">
          <mxGeometry y="104" width="157" height="26" as="geometry" />
        </mxCell>
        <mxCell id="C-fQPJXkF4i49Cx2T6fv-98" value="Country" style="text;align=left;verticalAlign=top;spacingLeft=4;spacingRight=4;overflow=hidden;rotatable=0;points=[[0,0.5],[1,0.5]];portConstraint=eastwest;rounded=0;shadow=0;html=0;" vertex="1" parent="C-fQPJXkF4i49Cx2T6fv-93">
          <mxGeometry y="130" width="157" height="26" as="geometry" />
        </mxCell>
        <mxCell id="C-fQPJXkF4i49Cx2T6fv-99" value="" style="line;html=1;strokeWidth=1;align=left;verticalAlign=middle;spacingTop=-1;spacingLeft=3;spacingRight=3;rotatable=0;labelPosition=right;points=[];portConstraint=eastwest;" vertex="1" parent="C-fQPJXkF4i49Cx2T6fv-93">
          <mxGeometry y="156" width="157" height="8" as="geometry" />
        </mxCell>
        <mxCell id="C-fQPJXkF4i49Cx2T6fv-100" value="Validate" style="text;align=left;verticalAlign=top;spacingLeft=4;spacingRight=4;overflow=hidden;rotatable=0;points=[[0,0.5],[1,0.5]];portConstraint=eastwest;" vertex="1" parent="C-fQPJXkF4i49Cx2T6fv-93">
          <mxGeometry y="164" width="157" height="26" as="geometry" />
        </mxCell>
        <mxCell id="C-fQPJXkF4i49Cx2T6fv-101" value="Output As Label" style="text;align=left;verticalAlign=top;spacingLeft=4;spacingRight=4;overflow=hidden;rotatable=0;points=[[0,0.5],[1,0.5]];portConstraint=eastwest;" vertex="1" parent="C-fQPJXkF4i49Cx2T6fv-93">
          <mxGeometry y="190" width="157" height="26" as="geometry" />
        </mxCell>
        <mxCell id="C-fQPJXkF4i49Cx2T6fv-102" value="ProblemDao" style="swimlane;fontStyle=0;align=center;verticalAlign=top;childLayout=stackLayout;horizontal=1;startSize=26;horizontalStack=0;resizeParent=1;resizeLast=0;collapsible=1;marginBottom=0;rounded=0;shadow=0;strokeWidth=1;" vertex="1" parent="WIyWlLk6GJQsqaUBKTNV-1">
          <mxGeometry x="-220" y="790" width="157" height="216" as="geometry">
            <mxRectangle x="550" y="140" width="160" height="26" as="alternateBounds" />
          </mxGeometry>
        </mxCell>
        <mxCell id="C-fQPJXkF4i49Cx2T6fv-103" value="Street" style="text;align=left;verticalAlign=top;spacingLeft=4;spacingRight=4;overflow=hidden;rotatable=0;points=[[0,0.5],[1,0.5]];portConstraint=eastwest;" vertex="1" parent="C-fQPJXkF4i49Cx2T6fv-102">
          <mxGeometry y="26" width="157" height="26" as="geometry" />
        </mxCell>
        <mxCell id="C-fQPJXkF4i49Cx2T6fv-104" value="City" style="text;align=left;verticalAlign=top;spacingLeft=4;spacingRight=4;overflow=hidden;rotatable=0;points=[[0,0.5],[1,0.5]];portConstraint=eastwest;rounded=0;shadow=0;html=0;" vertex="1" parent="C-fQPJXkF4i49Cx2T6fv-102">
          <mxGeometry y="52" width="157" height="26" as="geometry" />
        </mxCell>
        <mxCell id="C-fQPJXkF4i49Cx2T6fv-105" value="State" style="text;align=left;verticalAlign=top;spacingLeft=4;spacingRight=4;overflow=hidden;rotatable=0;points=[[0,0.5],[1,0.5]];portConstraint=eastwest;rounded=0;shadow=0;html=0;" vertex="1" parent="C-fQPJXkF4i49Cx2T6fv-102">
          <mxGeometry y="78" width="157" height="26" as="geometry" />
        </mxCell>
        <mxCell id="C-fQPJXkF4i49Cx2T6fv-106" value="Postal Code" style="text;align=left;verticalAlign=top;spacingLeft=4;spacingRight=4;overflow=hidden;rotatable=0;points=[[0,0.5],[1,0.5]];portConstraint=eastwest;rounded=0;shadow=0;html=0;" vertex="1" parent="C-fQPJXkF4i49Cx2T6fv-102">
          <mxGeometry y="104" width="157" height="26" as="geometry" />
        </mxCell>
        <mxCell id="C-fQPJXkF4i49Cx2T6fv-107" value="Country" style="text;align=left;verticalAlign=top;spacingLeft=4;spacingRight=4;overflow=hidden;rotatable=0;points=[[0,0.5],[1,0.5]];portConstraint=eastwest;rounded=0;shadow=0;html=0;" vertex="1" parent="C-fQPJXkF4i49Cx2T6fv-102">
          <mxGeometry y="130" width="157" height="26" as="geometry" />
        </mxCell>
        <mxCell id="C-fQPJXkF4i49Cx2T6fv-108" value="" style="line;html=1;strokeWidth=1;align=left;verticalAlign=middle;spacingTop=-1;spacingLeft=3;spacingRight=3;rotatable=0;labelPosition=right;points=[];portConstraint=eastwest;" vertex="1" parent="C-fQPJXkF4i49Cx2T6fv-102">
          <mxGeometry y="156" width="157" height="8" as="geometry" />
        </mxCell>
        <mxCell id="C-fQPJXkF4i49Cx2T6fv-109" value="Validate" style="text;align=left;verticalAlign=top;spacingLeft=4;spacingRight=4;overflow=hidden;rotatable=0;points=[[0,0.5],[1,0.5]];portConstraint=eastwest;" vertex="1" parent="C-fQPJXkF4i49Cx2T6fv-102">
          <mxGeometry y="164" width="157" height="26" as="geometry" />
        </mxCell>
        <mxCell id="C-fQPJXkF4i49Cx2T6fv-110" value="Output As Label" style="text;align=left;verticalAlign=top;spacingLeft=4;spacingRight=4;overflow=hidden;rotatable=0;points=[[0,0.5],[1,0.5]];portConstraint=eastwest;" vertex="1" parent="C-fQPJXkF4i49Cx2T6fv-102">
          <mxGeometry y="190" width="157" height="26" as="geometry" />
        </mxCell>
        <mxCell id="C-fQPJXkF4i49Cx2T6fv-111" value="Admin" style="swimlane;fontStyle=0;align=center;verticalAlign=top;childLayout=stackLayout;horizontal=1;startSize=26;horizontalStack=0;resizeParent=1;resizeLast=0;collapsible=1;marginBottom=0;rounded=0;shadow=0;strokeWidth=1;" vertex="1" parent="WIyWlLk6GJQsqaUBKTNV-1">
          <mxGeometry x="270" y="790" width="157" height="216" as="geometry">
            <mxRectangle x="550" y="140" width="160" height="26" as="alternateBounds" />
          </mxGeometry>
        </mxCell>
        <mxCell id="C-fQPJXkF4i49Cx2T6fv-112" value="Street" style="text;align=left;verticalAlign=top;spacingLeft=4;spacingRight=4;overflow=hidden;rotatable=0;points=[[0,0.5],[1,0.5]];portConstraint=eastwest;" vertex="1" parent="C-fQPJXkF4i49Cx2T6fv-111">
          <mxGeometry y="26" width="157" height="26" as="geometry" />
        </mxCell>
        <mxCell id="C-fQPJXkF4i49Cx2T6fv-113" value="City" style="text;align=left;verticalAlign=top;spacingLeft=4;spacingRight=4;overflow=hidden;rotatable=0;points=[[0,0.5],[1,0.5]];portConstraint=eastwest;rounded=0;shadow=0;html=0;" vertex="1" parent="C-fQPJXkF4i49Cx2T6fv-111">
          <mxGeometry y="52" width="157" height="26" as="geometry" />
        </mxCell>
        <mxCell id="C-fQPJXkF4i49Cx2T6fv-114" value="State" style="text;align=left;verticalAlign=top;spacingLeft=4;spacingRight=4;overflow=hidden;rotatable=0;points=[[0,0.5],[1,0.5]];portConstraint=eastwest;rounded=0;shadow=0;html=0;" vertex="1" parent="C-fQPJXkF4i49Cx2T6fv-111">
          <mxGeometry y="78" width="157" height="26" as="geometry" />
        </mxCell>
        <mxCell id="C-fQPJXkF4i49Cx2T6fv-115" value="Postal Code" style="text;align=left;verticalAlign=top;spacingLeft=4;spacingRight=4;overflow=hidden;rotatable=0;points=[[0,0.5],[1,0.5]];portConstraint=eastwest;rounded=0;shadow=0;html=0;" vertex="1" parent="C-fQPJXkF4i49Cx2T6fv-111">
          <mxGeometry y="104" width="157" height="26" as="geometry" />
        </mxCell>
        <mxCell id="C-fQPJXkF4i49Cx2T6fv-116" value="Country" style="text;align=left;verticalAlign=top;spacingLeft=4;spacingRight=4;overflow=hidden;rotatable=0;points=[[0,0.5],[1,0.5]];portConstraint=eastwest;rounded=0;shadow=0;html=0;" vertex="1" parent="C-fQPJXkF4i49Cx2T6fv-111">
          <mxGeometry y="130" width="157" height="26" as="geometry" />
        </mxCell>
        <mxCell id="C-fQPJXkF4i49Cx2T6fv-117" value="" style="line;html=1;strokeWidth=1;align=left;verticalAlign=middle;spacingTop=-1;spacingLeft=3;spacingRight=3;rotatable=0;labelPosition=right;points=[];portConstraint=eastwest;" vertex="1" parent="C-fQPJXkF4i49Cx2T6fv-111">
          <mxGeometry y="156" width="157" height="8" as="geometry" />
        </mxCell>
        <mxCell id="C-fQPJXkF4i49Cx2T6fv-118" value="Validate" style="text;align=left;verticalAlign=top;spacingLeft=4;spacingRight=4;overflow=hidden;rotatable=0;points=[[0,0.5],[1,0.5]];portConstraint=eastwest;" vertex="1" parent="C-fQPJXkF4i49Cx2T6fv-111">
          <mxGeometry y="164" width="157" height="26" as="geometry" />
        </mxCell>
        <mxCell id="C-fQPJXkF4i49Cx2T6fv-119" value="Output As Label" style="text;align=left;verticalAlign=top;spacingLeft=4;spacingRight=4;overflow=hidden;rotatable=0;points=[[0,0.5],[1,0.5]];portConstraint=eastwest;" vertex="1" parent="C-fQPJXkF4i49Cx2T6fv-111">
          <mxGeometry y="190" width="157" height="26" as="geometry" />
        </mxCell>
        <mxCell id="C-fQPJXkF4i49Cx2T6fv-120" value="AdminController" style="swimlane;fontStyle=0;align=center;verticalAlign=top;childLayout=stackLayout;horizontal=1;startSize=26;horizontalStack=0;resizeParent=1;resizeLast=0;collapsible=1;marginBottom=0;rounded=0;shadow=0;strokeWidth=1;" vertex="1" parent="WIyWlLk6GJQsqaUBKTNV-1">
          <mxGeometry x="450" y="790" width="157" height="216" as="geometry">
            <mxRectangle x="550" y="140" width="160" height="26" as="alternateBounds" />
          </mxGeometry>
        </mxCell>
        <mxCell id="C-fQPJXkF4i49Cx2T6fv-121" value="Street" style="text;align=left;verticalAlign=top;spacingLeft=4;spacingRight=4;overflow=hidden;rotatable=0;points=[[0,0.5],[1,0.5]];portConstraint=eastwest;" vertex="1" parent="C-fQPJXkF4i49Cx2T6fv-120">
          <mxGeometry y="26" width="157" height="26" as="geometry" />
        </mxCell>
        <mxCell id="C-fQPJXkF4i49Cx2T6fv-122" value="City" style="text;align=left;verticalAlign=top;spacingLeft=4;spacingRight=4;overflow=hidden;rotatable=0;points=[[0,0.5],[1,0.5]];portConstraint=eastwest;rounded=0;shadow=0;html=0;" vertex="1" parent="C-fQPJXkF4i49Cx2T6fv-120">
          <mxGeometry y="52" width="157" height="26" as="geometry" />
        </mxCell>
        <mxCell id="C-fQPJXkF4i49Cx2T6fv-123" value="State" style="text;align=left;verticalAlign=top;spacingLeft=4;spacingRight=4;overflow=hidden;rotatable=0;points=[[0,0.5],[1,0.5]];portConstraint=eastwest;rounded=0;shadow=0;html=0;" vertex="1" parent="C-fQPJXkF4i49Cx2T6fv-120">
          <mxGeometry y="78" width="157" height="26" as="geometry" />
        </mxCell>
        <mxCell id="C-fQPJXkF4i49Cx2T6fv-124" value="Postal Code" style="text;align=left;verticalAlign=top;spacingLeft=4;spacingRight=4;overflow=hidden;rotatable=0;points=[[0,0.5],[1,0.5]];portConstraint=eastwest;rounded=0;shadow=0;html=0;" vertex="1" parent="C-fQPJXkF4i49Cx2T6fv-120">
          <mxGeometry y="104" width="157" height="26" as="geometry" />
        </mxCell>
        <mxCell id="C-fQPJXkF4i49Cx2T6fv-125" value="Country" style="text;align=left;verticalAlign=top;spacingLeft=4;spacingRight=4;overflow=hidden;rotatable=0;points=[[0,0.5],[1,0.5]];portConstraint=eastwest;rounded=0;shadow=0;html=0;" vertex="1" parent="C-fQPJXkF4i49Cx2T6fv-120">
          <mxGeometry y="130" width="157" height="26" as="geometry" />
        </mxCell>
        <mxCell id="C-fQPJXkF4i49Cx2T6fv-126" value="" style="line;html=1;strokeWidth=1;align=left;verticalAlign=middle;spacingTop=-1;spacingLeft=3;spacingRight=3;rotatable=0;labelPosition=right;points=[];portConstraint=eastwest;" vertex="1" parent="C-fQPJXkF4i49Cx2T6fv-120">
          <mxGeometry y="156" width="157" height="8" as="geometry" />
        </mxCell>
        <mxCell id="C-fQPJXkF4i49Cx2T6fv-127" value="Validate" style="text;align=left;verticalAlign=top;spacingLeft=4;spacingRight=4;overflow=hidden;rotatable=0;points=[[0,0.5],[1,0.5]];portConstraint=eastwest;" vertex="1" parent="C-fQPJXkF4i49Cx2T6fv-120">
          <mxGeometry y="164" width="157" height="26" as="geometry" />
        </mxCell>
        <mxCell id="C-fQPJXkF4i49Cx2T6fv-128" value="Output As Label" style="text;align=left;verticalAlign=top;spacingLeft=4;spacingRight=4;overflow=hidden;rotatable=0;points=[[0,0.5],[1,0.5]];portConstraint=eastwest;" vertex="1" parent="C-fQPJXkF4i49Cx2T6fv-120">
          <mxGeometry y="190" width="157" height="26" as="geometry" />
        </mxCell>
        <mxCell id="C-fQPJXkF4i49Cx2T6fv-129" value="AdminService" style="swimlane;fontStyle=0;align=center;verticalAlign=top;childLayout=stackLayout;horizontal=1;startSize=26;horizontalStack=0;resizeParent=1;resizeLast=0;collapsible=1;marginBottom=0;rounded=0;shadow=0;strokeWidth=1;" vertex="1" parent="WIyWlLk6GJQsqaUBKTNV-1">
          <mxGeometry x="630" y="790" width="157" height="216" as="geometry">
            <mxRectangle x="550" y="140" width="160" height="26" as="alternateBounds" />
          </mxGeometry>
        </mxCell>
        <mxCell id="C-fQPJXkF4i49Cx2T6fv-130" value="Street" style="text;align=left;verticalAlign=top;spacingLeft=4;spacingRight=4;overflow=hidden;rotatable=0;points=[[0,0.5],[1,0.5]];portConstraint=eastwest;" vertex="1" parent="C-fQPJXkF4i49Cx2T6fv-129">
          <mxGeometry y="26" width="157" height="26" as="geometry" />
        </mxCell>
        <mxCell id="C-fQPJXkF4i49Cx2T6fv-131" value="City" style="text;align=left;verticalAlign=top;spacingLeft=4;spacingRight=4;overflow=hidden;rotatable=0;points=[[0,0.5],[1,0.5]];portConstraint=eastwest;rounded=0;shadow=0;html=0;" vertex="1" parent="C-fQPJXkF4i49Cx2T6fv-129">
          <mxGeometry y="52" width="157" height="26" as="geometry" />
        </mxCell>
        <mxCell id="C-fQPJXkF4i49Cx2T6fv-132" value="State" style="text;align=left;verticalAlign=top;spacingLeft=4;spacingRight=4;overflow=hidden;rotatable=0;points=[[0,0.5],[1,0.5]];portConstraint=eastwest;rounded=0;shadow=0;html=0;" vertex="1" parent="C-fQPJXkF4i49Cx2T6fv-129">
          <mxGeometry y="78" width="157" height="26" as="geometry" />
        </mxCell>
        <mxCell id="C-fQPJXkF4i49Cx2T6fv-133" value="Postal Code" style="text;align=left;verticalAlign=top;spacingLeft=4;spacingRight=4;overflow=hidden;rotatable=0;points=[[0,0.5],[1,0.5]];portConstraint=eastwest;rounded=0;shadow=0;html=0;" vertex="1" parent="C-fQPJXkF4i49Cx2T6fv-129">
          <mxGeometry y="104" width="157" height="26" as="geometry" />
        </mxCell>
        <mxCell id="C-fQPJXkF4i49Cx2T6fv-134" value="Country" style="text;align=left;verticalAlign=top;spacingLeft=4;spacingRight=4;overflow=hidden;rotatable=0;points=[[0,0.5],[1,0.5]];portConstraint=eastwest;rounded=0;shadow=0;html=0;" vertex="1" parent="C-fQPJXkF4i49Cx2T6fv-129">
          <mxGeometry y="130" width="157" height="26" as="geometry" />
        </mxCell>
        <mxCell id="C-fQPJXkF4i49Cx2T6fv-135" value="" style="line;html=1;strokeWidth=1;align=left;verticalAlign=middle;spacingTop=-1;spacingLeft=3;spacingRight=3;rotatable=0;labelPosition=right;points=[];portConstraint=eastwest;" vertex="1" parent="C-fQPJXkF4i49Cx2T6fv-129">
          <mxGeometry y="156" width="157" height="8" as="geometry" />
        </mxCell>
        <mxCell id="C-fQPJXkF4i49Cx2T6fv-136" value="Validate" style="text;align=left;verticalAlign=top;spacingLeft=4;spacingRight=4;overflow=hidden;rotatable=0;points=[[0,0.5],[1,0.5]];portConstraint=eastwest;" vertex="1" parent="C-fQPJXkF4i49Cx2T6fv-129">
          <mxGeometry y="164" width="157" height="26" as="geometry" />
        </mxCell>
        <mxCell id="C-fQPJXkF4i49Cx2T6fv-137" value="Output As Label" style="text;align=left;verticalAlign=top;spacingLeft=4;spacingRight=4;overflow=hidden;rotatable=0;points=[[0,0.5],[1,0.5]];portConstraint=eastwest;" vertex="1" parent="C-fQPJXkF4i49Cx2T6fv-129">
          <mxGeometry y="190" width="157" height="26" as="geometry" />
        </mxCell>
        <mxCell id="C-fQPJXkF4i49Cx2T6fv-138" value="AdminServiceImpl" style="swimlane;fontStyle=0;align=center;verticalAlign=top;childLayout=stackLayout;horizontal=1;startSize=26;horizontalStack=0;resizeParent=1;resizeLast=0;collapsible=1;marginBottom=0;rounded=0;shadow=0;strokeWidth=1;" vertex="1" parent="WIyWlLk6GJQsqaUBKTNV-1">
          <mxGeometry x="270" y="1030" width="157" height="216" as="geometry">
            <mxRectangle x="550" y="140" width="160" height="26" as="alternateBounds" />
          </mxGeometry>
        </mxCell>
        <mxCell id="C-fQPJXkF4i49Cx2T6fv-139" value="Street" style="text;align=left;verticalAlign=top;spacingLeft=4;spacingRight=4;overflow=hidden;rotatable=0;points=[[0,0.5],[1,0.5]];portConstraint=eastwest;" vertex="1" parent="C-fQPJXkF4i49Cx2T6fv-138">
          <mxGeometry y="26" width="157" height="26" as="geometry" />
        </mxCell>
        <mxCell id="C-fQPJXkF4i49Cx2T6fv-140" value="City" style="text;align=left;verticalAlign=top;spacingLeft=4;spacingRight=4;overflow=hidden;rotatable=0;points=[[0,0.5],[1,0.5]];portConstraint=eastwest;rounded=0;shadow=0;html=0;" vertex="1" parent="C-fQPJXkF4i49Cx2T6fv-138">
          <mxGeometry y="52" width="157" height="26" as="geometry" />
        </mxCell>
        <mxCell id="C-fQPJXkF4i49Cx2T6fv-141" value="State" style="text;align=left;verticalAlign=top;spacingLeft=4;spacingRight=4;overflow=hidden;rotatable=0;points=[[0,0.5],[1,0.5]];portConstraint=eastwest;rounded=0;shadow=0;html=0;" vertex="1" parent="C-fQPJXkF4i49Cx2T6fv-138">
          <mxGeometry y="78" width="157" height="26" as="geometry" />
        </mxCell>
        <mxCell id="C-fQPJXkF4i49Cx2T6fv-142" value="Postal Code" style="text;align=left;verticalAlign=top;spacingLeft=4;spacingRight=4;overflow=hidden;rotatable=0;points=[[0,0.5],[1,0.5]];portConstraint=eastwest;rounded=0;shadow=0;html=0;" vertex="1" parent="C-fQPJXkF4i49Cx2T6fv-138">
          <mxGeometry y="104" width="157" height="26" as="geometry" />
        </mxCell>
        <mxCell id="C-fQPJXkF4i49Cx2T6fv-143" value="Country" style="text;align=left;verticalAlign=top;spacingLeft=4;spacingRight=4;overflow=hidden;rotatable=0;points=[[0,0.5],[1,0.5]];portConstraint=eastwest;rounded=0;shadow=0;html=0;" vertex="1" parent="C-fQPJXkF4i49Cx2T6fv-138">
          <mxGeometry y="130" width="157" height="26" as="geometry" />
        </mxCell>
        <mxCell id="C-fQPJXkF4i49Cx2T6fv-144" value="" style="line;html=1;strokeWidth=1;align=left;verticalAlign=middle;spacingTop=-1;spacingLeft=3;spacingRight=3;rotatable=0;labelPosition=right;points=[];portConstraint=eastwest;" vertex="1" parent="C-fQPJXkF4i49Cx2T6fv-138">
          <mxGeometry y="156" width="157" height="8" as="geometry" />
        </mxCell>
        <mxCell id="C-fQPJXkF4i49Cx2T6fv-145" value="Validate" style="text;align=left;verticalAlign=top;spacingLeft=4;spacingRight=4;overflow=hidden;rotatable=0;points=[[0,0.5],[1,0.5]];portConstraint=eastwest;" vertex="1" parent="C-fQPJXkF4i49Cx2T6fv-138">
          <mxGeometry y="164" width="157" height="26" as="geometry" />
        </mxCell>
        <mxCell id="C-fQPJXkF4i49Cx2T6fv-146" value="Output As Label" style="text;align=left;verticalAlign=top;spacingLeft=4;spacingRight=4;overflow=hidden;rotatable=0;points=[[0,0.5],[1,0.5]];portConstraint=eastwest;" vertex="1" parent="C-fQPJXkF4i49Cx2T6fv-138">
          <mxGeometry y="190" width="157" height="26" as="geometry" />
        </mxCell>
        <mxCell id="C-fQPJXkF4i49Cx2T6fv-147" value="ProblemServiceImpl" style="swimlane;fontStyle=0;align=center;verticalAlign=top;childLayout=stackLayout;horizontal=1;startSize=26;horizontalStack=0;resizeParent=1;resizeLast=0;collapsible=1;marginBottom=0;rounded=0;shadow=0;strokeWidth=1;" vertex="1" parent="WIyWlLk6GJQsqaUBKTNV-1">
          <mxGeometry x="-400" y="550" width="157" height="216" as="geometry">
            <mxRectangle x="550" y="140" width="160" height="26" as="alternateBounds" />
          </mxGeometry>
        </mxCell>
        <mxCell id="C-fQPJXkF4i49Cx2T6fv-148" value="Street" style="text;align=left;verticalAlign=top;spacingLeft=4;spacingRight=4;overflow=hidden;rotatable=0;points=[[0,0.5],[1,0.5]];portConstraint=eastwest;" vertex="1" parent="C-fQPJXkF4i49Cx2T6fv-147">
          <mxGeometry y="26" width="157" height="26" as="geometry" />
        </mxCell>
        <mxCell id="C-fQPJXkF4i49Cx2T6fv-149" value="City" style="text;align=left;verticalAlign=top;spacingLeft=4;spacingRight=4;overflow=hidden;rotatable=0;points=[[0,0.5],[1,0.5]];portConstraint=eastwest;rounded=0;shadow=0;html=0;" vertex="1" parent="C-fQPJXkF4i49Cx2T6fv-147">
          <mxGeometry y="52" width="157" height="26" as="geometry" />
        </mxCell>
        <mxCell id="C-fQPJXkF4i49Cx2T6fv-150" value="State" style="text;align=left;verticalAlign=top;spacingLeft=4;spacingRight=4;overflow=hidden;rotatable=0;points=[[0,0.5],[1,0.5]];portConstraint=eastwest;rounded=0;shadow=0;html=0;" vertex="1" parent="C-fQPJXkF4i49Cx2T6fv-147">
          <mxGeometry y="78" width="157" height="26" as="geometry" />
        </mxCell>
        <mxCell id="C-fQPJXkF4i49Cx2T6fv-151" value="Postal Code" style="text;align=left;verticalAlign=top;spacingLeft=4;spacingRight=4;overflow=hidden;rotatable=0;points=[[0,0.5],[1,0.5]];portConstraint=eastwest;rounded=0;shadow=0;html=0;" vertex="1" parent="C-fQPJXkF4i49Cx2T6fv-147">
          <mxGeometry y="104" width="157" height="26" as="geometry" />
        </mxCell>
        <mxCell id="C-fQPJXkF4i49Cx2T6fv-152" value="Country" style="text;align=left;verticalAlign=top;spacingLeft=4;spacingRight=4;overflow=hidden;rotatable=0;points=[[0,0.5],[1,0.5]];portConstraint=eastwest;rounded=0;shadow=0;html=0;" vertex="1" parent="C-fQPJXkF4i49Cx2T6fv-147">
          <mxGeometry y="130" width="157" height="26" as="geometry" />
        </mxCell>
        <mxCell id="C-fQPJXkF4i49Cx2T6fv-153" value="" style="line;html=1;strokeWidth=1;align=left;verticalAlign=middle;spacingTop=-1;spacingLeft=3;spacingRight=3;rotatable=0;labelPosition=right;points=[];portConstraint=eastwest;" vertex="1" parent="C-fQPJXkF4i49Cx2T6fv-147">
          <mxGeometry y="156" width="157" height="8" as="geometry" />
        </mxCell>
        <mxCell id="C-fQPJXkF4i49Cx2T6fv-154" value="Validate" style="text;align=left;verticalAlign=top;spacingLeft=4;spacingRight=4;overflow=hidden;rotatable=0;points=[[0,0.5],[1,0.5]];portConstraint=eastwest;" vertex="1" parent="C-fQPJXkF4i49Cx2T6fv-147">
          <mxGeometry y="164" width="157" height="26" as="geometry" />
        </mxCell>
        <mxCell id="C-fQPJXkF4i49Cx2T6fv-155" value="Output As Label" style="text;align=left;verticalAlign=top;spacingLeft=4;spacingRight=4;overflow=hidden;rotatable=0;points=[[0,0.5],[1,0.5]];portConstraint=eastwest;" vertex="1" parent="C-fQPJXkF4i49Cx2T6fv-147">
          <mxGeometry y="190" width="157" height="26" as="geometry" />
        </mxCell>
        <mxCell id="C-fQPJXkF4i49Cx2T6fv-156" value="ProblemController" style="swimlane;fontStyle=0;align=center;verticalAlign=top;childLayout=stackLayout;horizontal=1;startSize=26;horizontalStack=0;resizeParent=1;resizeLast=0;collapsible=1;marginBottom=0;rounded=0;shadow=0;strokeWidth=1;" vertex="1" parent="WIyWlLk6GJQsqaUBKTNV-1">
          <mxGeometry x="-400" y="790" width="157" height="216" as="geometry">
            <mxRectangle x="550" y="140" width="160" height="26" as="alternateBounds" />
          </mxGeometry>
        </mxCell>
        <mxCell id="C-fQPJXkF4i49Cx2T6fv-157" value="Street" style="text;align=left;verticalAlign=top;spacingLeft=4;spacingRight=4;overflow=hidden;rotatable=0;points=[[0,0.5],[1,0.5]];portConstraint=eastwest;" vertex="1" parent="C-fQPJXkF4i49Cx2T6fv-156">
          <mxGeometry y="26" width="157" height="26" as="geometry" />
        </mxCell>
        <mxCell id="C-fQPJXkF4i49Cx2T6fv-158" value="City" style="text;align=left;verticalAlign=top;spacingLeft=4;spacingRight=4;overflow=hidden;rotatable=0;points=[[0,0.5],[1,0.5]];portConstraint=eastwest;rounded=0;shadow=0;html=0;" vertex="1" parent="C-fQPJXkF4i49Cx2T6fv-156">
          <mxGeometry y="52" width="157" height="26" as="geometry" />
        </mxCell>
        <mxCell id="C-fQPJXkF4i49Cx2T6fv-159" value="State" style="text;align=left;verticalAlign=top;spacingLeft=4;spacingRight=4;overflow=hidden;rotatable=0;points=[[0,0.5],[1,0.5]];portConstraint=eastwest;rounded=0;shadow=0;html=0;" vertex="1" parent="C-fQPJXkF4i49Cx2T6fv-156">
          <mxGeometry y="78" width="157" height="26" as="geometry" />
        </mxCell>
        <mxCell id="C-fQPJXkF4i49Cx2T6fv-160" value="Postal Code" style="text;align=left;verticalAlign=top;spacingLeft=4;spacingRight=4;overflow=hidden;rotatable=0;points=[[0,0.5],[1,0.5]];portConstraint=eastwest;rounded=0;shadow=0;html=0;" vertex="1" parent="C-fQPJXkF4i49Cx2T6fv-156">
          <mxGeometry y="104" width="157" height="26" as="geometry" />
        </mxCell>
        <mxCell id="C-fQPJXkF4i49Cx2T6fv-161" value="Country" style="text;align=left;verticalAlign=top;spacingLeft=4;spacingRight=4;overflow=hidden;rotatable=0;points=[[0,0.5],[1,0.5]];portConstraint=eastwest;rounded=0;shadow=0;html=0;" vertex="1" parent="C-fQPJXkF4i49Cx2T6fv-156">
          <mxGeometry y="130" width="157" height="26" as="geometry" />
        </mxCell>
        <mxCell id="C-fQPJXkF4i49Cx2T6fv-162" value="" style="line;html=1;strokeWidth=1;align=left;verticalAlign=middle;spacingTop=-1;spacingLeft=3;spacingRight=3;rotatable=0;labelPosition=right;points=[];portConstraint=eastwest;" vertex="1" parent="C-fQPJXkF4i49Cx2T6fv-156">
          <mxGeometry y="156" width="157" height="8" as="geometry" />
        </mxCell>
        <mxCell id="C-fQPJXkF4i49Cx2T6fv-163" value="Validate" style="text;align=left;verticalAlign=top;spacingLeft=4;spacingRight=4;overflow=hidden;rotatable=0;points=[[0,0.5],[1,0.5]];portConstraint=eastwest;" vertex="1" parent="C-fQPJXkF4i49Cx2T6fv-156">
          <mxGeometry y="164" width="157" height="26" as="geometry" />
        </mxCell>
        <mxCell id="C-fQPJXkF4i49Cx2T6fv-164" value="Output As Label" style="text;align=left;verticalAlign=top;spacingLeft=4;spacingRight=4;overflow=hidden;rotatable=0;points=[[0,0.5],[1,0.5]];portConstraint=eastwest;" vertex="1" parent="C-fQPJXkF4i49Cx2T6fv-156">
          <mxGeometry y="190" width="157" height="26" as="geometry" />
        </mxCell>
        <mxCell id="C-fQPJXkF4i49Cx2T6fv-165" value="ProblemService" style="swimlane;fontStyle=0;align=center;verticalAlign=top;childLayout=stackLayout;horizontal=1;startSize=26;horizontalStack=0;resizeParent=1;resizeLast=0;collapsible=1;marginBottom=0;rounded=0;shadow=0;strokeWidth=1;" vertex="1" parent="WIyWlLk6GJQsqaUBKTNV-1">
          <mxGeometry x="-400" y="310" width="157" height="216" as="geometry">
            <mxRectangle x="550" y="140" width="160" height="26" as="alternateBounds" />
          </mxGeometry>
        </mxCell>
        <mxCell id="C-fQPJXkF4i49Cx2T6fv-166" value="Street" style="text;align=left;verticalAlign=top;spacingLeft=4;spacingRight=4;overflow=hidden;rotatable=0;points=[[0,0.5],[1,0.5]];portConstraint=eastwest;" vertex="1" parent="C-fQPJXkF4i49Cx2T6fv-165">
          <mxGeometry y="26" width="157" height="26" as="geometry" />
        </mxCell>
        <mxCell id="C-fQPJXkF4i49Cx2T6fv-167" value="City" style="text;align=left;verticalAlign=top;spacingLeft=4;spacingRight=4;overflow=hidden;rotatable=0;points=[[0,0.5],[1,0.5]];portConstraint=eastwest;rounded=0;shadow=0;html=0;" vertex="1" parent="C-fQPJXkF4i49Cx2T6fv-165">
          <mxGeometry y="52" width="157" height="26" as="geometry" />
        </mxCell>
        <mxCell id="C-fQPJXkF4i49Cx2T6fv-168" value="State" style="text;align=left;verticalAlign=top;spacingLeft=4;spacingRight=4;overflow=hidden;rotatable=0;points=[[0,0.5],[1,0.5]];portConstraint=eastwest;rounded=0;shadow=0;html=0;" vertex="1" parent="C-fQPJXkF4i49Cx2T6fv-165">
          <mxGeometry y="78" width="157" height="26" as="geometry" />
        </mxCell>
        <mxCell id="C-fQPJXkF4i49Cx2T6fv-169" value="Postal Code" style="text;align=left;verticalAlign=top;spacingLeft=4;spacingRight=4;overflow=hidden;rotatable=0;points=[[0,0.5],[1,0.5]];portConstraint=eastwest;rounded=0;shadow=0;html=0;" vertex="1" parent="C-fQPJXkF4i49Cx2T6fv-165">
          <mxGeometry y="104" width="157" height="26" as="geometry" />
        </mxCell>
        <mxCell id="C-fQPJXkF4i49Cx2T6fv-170" value="Country" style="text;align=left;verticalAlign=top;spacingLeft=4;spacingRight=4;overflow=hidden;rotatable=0;points=[[0,0.5],[1,0.5]];portConstraint=eastwest;rounded=0;shadow=0;html=0;" vertex="1" parent="C-fQPJXkF4i49Cx2T6fv-165">
          <mxGeometry y="130" width="157" height="26" as="geometry" />
        </mxCell>
        <mxCell id="C-fQPJXkF4i49Cx2T6fv-171" value="" style="line;html=1;strokeWidth=1;align=left;verticalAlign=middle;spacingTop=-1;spacingLeft=3;spacingRight=3;rotatable=0;labelPosition=right;points=[];portConstraint=eastwest;" vertex="1" parent="C-fQPJXkF4i49Cx2T6fv-165">
          <mxGeometry y="156" width="157" height="8" as="geometry" />
        </mxCell>
        <mxCell id="C-fQPJXkF4i49Cx2T6fv-172" value="Validate" style="text;align=left;verticalAlign=top;spacingLeft=4;spacingRight=4;overflow=hidden;rotatable=0;points=[[0,0.5],[1,0.5]];portConstraint=eastwest;" vertex="1" parent="C-fQPJXkF4i49Cx2T6fv-165">
          <mxGeometry y="164" width="157" height="26" as="geometry" />
        </mxCell>
        <mxCell id="C-fQPJXkF4i49Cx2T6fv-173" value="Output As Label" style="text;align=left;verticalAlign=top;spacingLeft=4;spacingRight=4;overflow=hidden;rotatable=0;points=[[0,0.5],[1,0.5]];portConstraint=eastwest;" vertex="1" parent="C-fQPJXkF4i49Cx2T6fv-165">
          <mxGeometry y="190" width="157" height="26" as="geometry" />
        </mxCell>
      </root>
    </mxGraphModel>
  </diagram>
</mxfile>
